<?xml version="1.0" standalone="no"?><!DOCTYPE svg PUBLIC "-//W3C//DTD SVG 1.1//EN"
  "http://www.w3.org/Graphics/SVG/1.1/DTD/svg11.dtd">
<svg t="1729067236316" class="icon" viewBox="0 0 1024 1024" version="1.1"
  xmlns="http://www.w3.org/2000/svg" p-id="5142"
  width="200" height="200">
  <path
    d="M85.333333 128h341.333334v85.333333H85.333333zM85.333333 341.333333h341.333334v85.333334H85.333333zM85.333333 554.666667h426.666667v85.333333H85.333333zM85.333333 810.666667h853.333334v85.333333H85.333333zM964.266667 413.866667c-17.066667-12.8-46.933333-12.8-59.733334 8.533333L810.666667 537.6V128c0-25.6-17.066667-42.666667-42.666667-42.666667s-42.666667 17.066667-42.666667 42.666667v422.4l-98.133333-106.666667c-17.066667-17.066667-42.666667-17.066667-59.733333-4.266666-17.066667 17.066667-21.333333 42.666667-4.266667 59.733333l170.666667 192c4.266667 4.266667 8.533333 4.266667 8.533333 8.533333l4.266667 4.266667c4.266667 4.266667 12.8 4.266667 17.066666 4.266667h4.266667c4.266667 0 8.533333 0 12.8-4.266667l4.266667-4.266667c4.266667 0 4.266667-4.266667 8.533333-8.533333l170.666667-213.333333c21.333333-21.333333 21.333333-46.933333 0-64z"
    fill="" p-id="5143"></path>
</svg>