<?xml version="1.0" encoding="UTF-8"?>
<svg width="16px" height="16px" viewBox="0 0 16 16" version="1.1" xmlns="http://www.w3.org/2000/svg"
>
  <!-- Generator: Sketch 60 (88103) - https://sketch.com -->
  <title>子分组</title>
  <desc>Created with Sketch.</desc>
  <g id="Page-1" stroke="none" stroke-width="1" fill="none" fill-rule="evenodd">
    <g id="物联网平台_设备_分组_分组概览_20200106" transform="translate(-290.000000, -140.000000)">
      <g id="编组-4" transform="translate(260.000000, 112.000000)">
        <g id="子分组" transform="translate(30.000000, 28.000000)">
          <rect id="矩形" x="0" y="0" width="16" height="16"></rect>
          <path
            d="M7,0 L7,7 L4,7 L4,12 L9,12 L9,9 L16,9 L16,16 L9,16 L9,13 L3,13 L3,7 L0,7 L0,0 L7,0 Z M13,9.18485099e-17 L13,3 L16,3 L16,4 L12.999,4 L13,7 L12,7 L11.999,4 L9,4 L9,3 L12,3 L12,-9.18485099e-17 L13,9.18485099e-17 Z M5,2 L2,2 L2,5 L5,5 L5,2 Z"
            id="形状结合" fill="#575D6C"></path>
        </g>
      </g>
    </g>
  </g>
</svg>